<svg xmlns="http://www.w3.org/2000/svg" width="24" height="24" viewBox="0 0 24 24">
  <style>
    path.b {
      fill: black
    }

    p.social .b {
      fill: var(--blue)
    }

    body.dark-theme path.b {
      fill: white
    }
  </style>
  <g>
    <path class="b"
      d="M6 6a1 1 0 0 1 1-1h10a1 1 0 1 1 0 2H7a1 1 0 0 1-1-1Zm0 4a1 1 0 0 1 1-1h10a1 1 0 1 1 0 2H7a1 1 0 0 1-1-1Zm1 3a1 1 0 1 0 0 2h10a1 1 0 1 0 0-2H7Zm-1 5a1 1 0 0 1 1-1h4a1 1 0 1 1 0 2H7a1 1 0 0 1-1-1Z">
    </path>
    <path class="b" fill-rule="evenodd"
      d="M2 4a3 3 0 0 1 3-3h14a3 3 0 0 1 3 3v16a3 3 0 0 1-3 3H5a3 3 0 0 1-3-3V4Zm3-1h14a1 1 0 0 1 1 1v16a1 1 0 0 1-1 1H5a1 1 0 0 1-1-1V4a1 1 0 0 1 1-1Z"
      clip-rule="evenodd"></path>
  </g>
</svg>