<svg width="100%"  style="padding: 3rem" viewBox="0 0 24 24" xmlns="http://www.w3.org/2000/svg">
    <style>
      path.rr { fill: black; }
      body.dark-theme path.rr { fill: white; }
    </style>
    <path class="rr" d="M4 22q-.825 0-1.413-.588T2 20V8q0-.625.338-1.125t.912-.725L15.9 1l.65 1.65L8.3 6H20q.825 0 1.413.588T22 8v12q0 .825-.588 1.413T20 22H4Zm0-2h16v-7H4v7Zm4-1q1.05 0 1.775-.725T10.5 16.5q0-1.05-.725-1.775T8 14q-1.05 0-1.775.725T5.5 16.5q0 1.05.725 1.775T8 19Zm-4-8h12V9h2v2h2V8H4v3Zm0 9v-7v7Z"/>
</svg>