<svg
  xmlns="http://www.w3.org/2000/svg"
  width="256"
  height="308"
  preserveAspectRatio="xMidYMid"
  viewBox="0 0 256 308">
  <path
    fill="#FF3E00"
    d="M239.7 40.7c-28.6-40.9-85-53-125.8-27L42.2 59.4a82.2 82.2 0 00-37 55c-3.5 19-.5 38.5 8.4 55.6a82.4 82.4 0 00-12.2 30.7 87.6 87.6 0 0015 66.3c28.5 40.8 85 53 125.7 27l71.7-45.7a82.2 82.2 0 0037-55c3.5-19 .5-38.6-8.4-55.6a82.4 82.4 0 0012.2-30.7c4.2-23.2-1.2-47.1-15-66.3" />
  <path
    fill="#FFF"
    d="M106.9 270.8a57 57 0 01-61.1-22.6 52.7 52.7 0 01-7.3-46.5l1.3-4.2 3.7 2.7c8.5 6.3 18 11 28 14l2.7.8-.2 2.7a16 16 0 002.9 10.7c4 5.9 11.4 8.6 18.4 6.8 1.5-.4 3-1 4.4-2l71.6-45.6a15 15 0 006.8-10 16 16 0 00-2.7-12c-4.1-6-11.5-8.6-18.5-6.8-1.5.4-3 1-4.3 1.9l-27.4 17.4c-4.5 2.9-9.4 5-14.6 6.4a57 57 0 01-61-22.6 52.7 52.7 0 01-9-39.9 49.4 49.4 0 0122.3-33l71.6-45.8c4.5-2.8 9.5-5 14.6-6.4a57 57 0 0161.1 22.7 52.7 52.7 0 017.3 46.5l-1.3 4.1-3.7-2.7c-8.5-6.2-18-11-28-14l-2.7-.8.2-2.6c.4-3.8-.7-7.6-2.9-10.7-4-5.9-11.4-8.6-18.4-6.8-1.5.4-3 1-4.4 2L84.7 120c-3.6 2.2-6 5.8-6.8 10-.7 4.2.3 8.5 2.7 12 4.1 5.9 11.5 8.6 18.5 6.8 1.5-.4 3-1 4.4-2l27.3-17.4a57 57 0 0175.7 16.3 52.7 52.7 0 019 39.9 49.5 49.5 0 01-22.4 33l-71.6 45.7c-4.5 3-9.5 5-14.6 6.4" />
</svg>
