<svg xmlns="http://www.w3.org/2000/svg" role="img" width="776" height="333"><rect width="776" height="333" fill="transparent"></rect><g transform="translate(50,40)"><g><line stroke="#dddddd" stroke-width="1" opacity="1" x1="0" x2="646" y1="213" y2="213"></line><line stroke="#dddddd" stroke-width="1" opacity="1" x1="0" x2="646" y1="192" y2="192"></line><line stroke="#dddddd" stroke-width="1" opacity="1" x1="0" x2="646" y1="170" y2="170"></line><line stroke="#dddddd" stroke-width="1" opacity="1" x1="0" x2="646" y1="149" y2="149"></line><line stroke="#dddddd" stroke-width="1" opacity="1" x1="0" x2="646" y1="128" y2="128"></line><line stroke="#dddddd" stroke-width="1" opacity="1" x1="0" x2="646" y1="107" y2="107"></line><line stroke="#dddddd" stroke-width="1" opacity="1" x1="0" x2="646" y1="85" y2="85"></line><line stroke="#dddddd" stroke-width="1" opacity="1" x1="0" x2="646" y1="64" y2="64"></line><line stroke="#dddddd" stroke-width="1" opacity="1" x1="0" x2="646" y1="43" y2="43"></line><line stroke="#dddddd" stroke-width="1" opacity="1" x1="0" x2="646" y1="21" y2="21"></line><line stroke="#dddddd" stroke-width="1" opacity="1" x1="0" x2="646" y1="0" y2="0"></line></g><g transform="translate(0, 170)"><line x1="0" x2="646" y1="0" y2="0" stroke="#000000" stroke-width="1" style="stroke: black; stroke-width: 2;"></line></g><g transform="translate(428.4, 0)"><line x1="0" x2="0" y1="0" y2="213" stroke="#000000" stroke-width="1" style="stroke: black; stroke-width: 1;"></line></g><g transform="translate(448.8, 0)"><line x1="0" x2="0" y1="0" y2="213" stroke="#000000" stroke-width="1" style="stroke: rgb(189, 189, 189); stroke-width: 1;"></line></g><g transform="translate(523.6, 0)"><line x1="0" x2="0" y1="0" y2="213" stroke="#000000" stroke-width="1" style="stroke: black; stroke-width: 1;"></line></g><g transform="translate(undefined, 0)"><line x1="0" x2="0" y1="0" y2="213" stroke="#000000" stroke-width="1" style="stroke: black; stroke-width: 1;"></line></g><g transform="translate(undefined, 0)"><line x1="0" x2="0" y1="0" y2="213" stroke="#000000" stroke-width="1" style="stroke: rgb(189, 189, 189); stroke-width: 1;"></line></g><g transform="translate(undefined, 0)"><line x1="0" x2="0" y1="0" y2="213" stroke="#000000" stroke-width="1" style="stroke: black; stroke-width: 1;"></line></g><g transform="translate(undefined, 0)"><line x1="0" x2="0" y1="0" y2="213" stroke="#000000" stroke-width="1" style="stroke: rgb(189, 189, 189); stroke-width: 1;"></line></g><g transform="translate(618.8, 0)"><line x1="0" x2="0" y1="0" y2="213" stroke="#000000" stroke-width="1" style="stroke: black; stroke-width: 1;"></line></g><g transform="translate(0,213)"><g transform="translate(6.8,0)" style="opacity: 1;"><line x1="0" x2="0" y1="0" y2="0" style="stroke: rgb(119, 119, 119); stroke-width: 1;"></line><text dominant-baseline="central" text-anchor="end" transform="translate(0,10) rotate(-55)" style="font-family: Montserrat; font-size: 12px; fill: rgb(51, 51, 51);">março 03</text></g><g transform="translate(68,0)" style="opacity: 1;"><line x1="0" x2="0" y1="0" y2="0" style="stroke: rgb(119, 119, 119); stroke-width: 1;"></line><text dominant-baseline="central" text-anchor="end" transform="translate(0,10) rotate(-55)" style="font-family: Montserrat; font-size: 12px; fill: rgb(51, 51, 51);">março 12</text></g><g transform="translate(129.2,0)" style="opacity: 1;"><line x1="0" x2="0" y1="0" y2="0" style="stroke: rgb(119, 119, 119); stroke-width: 1;"></line><text dominant-baseline="central" text-anchor="end" transform="translate(0,10) rotate(-55)" style="font-family: Montserrat; font-size: 12px; fill: rgb(51, 51, 51);">março 21</text></g><g transform="translate(190.4,0)" style="opacity: 1;"><line x1="0" x2="0" y1="0" y2="0" style="stroke: rgb(119, 119, 119); stroke-width: 1;"></line><text dominant-baseline="central" text-anchor="end" transform="translate(0,10) rotate(-55)" style="font-family: Montserrat; font-size: 12px; fill: rgb(51, 51, 51);">março 30</text></g><g transform="translate(251.6,0)" style="opacity: 1;"><line x1="0" x2="0" y1="0" y2="0" style="stroke: rgb(119, 119, 119); stroke-width: 1;"></line><text dominant-baseline="central" text-anchor="end" transform="translate(0,10) rotate(-55)" style="font-family: Montserrat; font-size: 12px; fill: rgb(51, 51, 51);">abril 08</text></g><g transform="translate(312.8,0)" style="opacity: 1;"><line x1="0" x2="0" y1="0" y2="0" style="stroke: rgb(119, 119, 119); stroke-width: 1;"></line><text dominant-baseline="central" text-anchor="end" transform="translate(0,10) rotate(-55)" style="font-family: Montserrat; font-size: 12px; fill: rgb(51, 51, 51);">abril 17</text></g><g transform="translate(374,0)" style="opacity: 1;"><line x1="0" x2="0" y1="0" y2="0" style="stroke: rgb(119, 119, 119); stroke-width: 1;"></line><text dominant-baseline="central" text-anchor="end" transform="translate(0,10) rotate(-55)" style="font-family: Montserrat; font-size: 12px; fill: rgb(51, 51, 51);">abril 26</text></g><g transform="translate(435.2,0)" style="opacity: 1;"><line x1="0" x2="0" y1="0" y2="0" style="stroke: rgb(119, 119, 119); stroke-width: 1;"></line><text dominant-baseline="central" text-anchor="end" transform="translate(0,10) rotate(-55)" style="font-family: Montserrat; font-size: 12px; fill: rgb(51, 51, 51);">maio 05</text></g><g transform="translate(496.4,0)" style="opacity: 1;"><line x1="0" x2="0" y1="0" y2="0" style="stroke: rgb(119, 119, 119); stroke-width: 1;"></line><text dominant-baseline="central" text-anchor="end" transform="translate(0,10) rotate(-55)" style="font-family: Montserrat; font-size: 12px; fill: rgb(51, 51, 51);">maio 14</text></g><g transform="translate(557.6,0)" style="opacity: 1;"><line x1="0" x2="0" y1="0" y2="0" style="stroke: rgb(119, 119, 119); stroke-width: 1;"></line><text dominant-baseline="central" text-anchor="end" transform="translate(0,10) rotate(-55)" style="font-family: Montserrat; font-size: 12px; fill: rgb(51, 51, 51);">maio 23</text></g><g transform="translate(618.8,0)" style="opacity: 1;"><line x1="0" x2="0" y1="0" y2="0" style="stroke: rgb(119, 119, 119); stroke-width: 1;"></line><text dominant-baseline="central" text-anchor="end" transform="translate(0,10) rotate(-55)" style="font-family: Montserrat; font-size: 12px; fill: rgb(51, 51, 51);">junho 01</text></g><line x1="0" y1="0" x2="646" y2="0" style="stroke: transparent; stroke-width: 1;"></line></g><g transform="translate(0,0)"><g transform="translate(0,213)" style="opacity: 1;"><line x1="0" x2="0" y1="0" y2="0" style="stroke: rgb(119, 119, 119); stroke-width: 1;"></line><text dominant-baseline="central" text-anchor="end" transform="translate(-10,0) rotate(0)" style="font-family: Montserrat; font-size: 12px; fill: rgb(51, 51, 51);">0</text></g><g transform="translate(0,192)" style="opacity: 1;"><line x1="0" x2="0" y1="0" y2="0" style="stroke: rgb(119, 119, 119); stroke-width: 1;"></line><text dominant-baseline="central" text-anchor="end" transform="translate(-10,0) rotate(0)" style="font-family: Montserrat; font-size: 12px; fill: rgb(51, 51, 51);">0.5</text></g><g transform="translate(0,170)" style="opacity: 1;"><line x1="0" x2="0" y1="0" y2="0" style="stroke: rgb(119, 119, 119); stroke-width: 1;"></line><text dominant-baseline="central" text-anchor="end" transform="translate(-10,0) rotate(0)" style="font-family: Montserrat; font-size: 12px; fill: rgb(51, 51, 51);">1</text></g><g transform="translate(0,149)" style="opacity: 1;"><line x1="0" x2="0" y1="0" y2="0" style="stroke: rgb(119, 119, 119); stroke-width: 1;"></line><text dominant-baseline="central" text-anchor="end" transform="translate(-10,0) rotate(0)" style="font-family: Montserrat; font-size: 12px; fill: rgb(51, 51, 51);">1.5</text></g><g transform="translate(0,128)" style="opacity: 1;"><line x1="0" x2="0" y1="0" y2="0" style="stroke: rgb(119, 119, 119); stroke-width: 1;"></line><text dominant-baseline="central" text-anchor="end" transform="translate(-10,0) rotate(0)" style="font-family: Montserrat; font-size: 12px; fill: rgb(51, 51, 51);">2</text></g><g transform="translate(0,107)" style="opacity: 1;"><line x1="0" x2="0" y1="0" y2="0" style="stroke: rgb(119, 119, 119); stroke-width: 1;"></line><text dominant-baseline="central" text-anchor="end" transform="translate(-10,0) rotate(0)" style="font-family: Montserrat; font-size: 12px; fill: rgb(51, 51, 51);">2.5</text></g><g transform="translate(0,85)" style="opacity: 1;"><line x1="0" x2="0" y1="0" y2="0" style="stroke: rgb(119, 119, 119); stroke-width: 1;"></line><text dominant-baseline="central" text-anchor="end" transform="translate(-10,0) rotate(0)" style="font-family: Montserrat; font-size: 12px; fill: rgb(51, 51, 51);">3</text></g><g transform="translate(0,64)" style="opacity: 1;"><line x1="0" x2="0" y1="0" y2="0" style="stroke: rgb(119, 119, 119); stroke-width: 1;"></line><text dominant-baseline="central" text-anchor="end" transform="translate(-10,0) rotate(0)" style="font-family: Montserrat; font-size: 12px; fill: rgb(51, 51, 51);">3.5</text></g><g transform="translate(0,43)" style="opacity: 1;"><line x1="0" x2="0" y1="0" y2="0" style="stroke: rgb(119, 119, 119); stroke-width: 1;"></line><text dominant-baseline="central" text-anchor="end" transform="translate(-10,0) rotate(0)" style="font-family: Montserrat; font-size: 12px; fill: rgb(51, 51, 51);">4</text></g><g transform="translate(0,21)" style="opacity: 1;"><line x1="0" x2="0" y1="0" y2="0" style="stroke: rgb(119, 119, 119); stroke-width: 1;"></line><text dominant-baseline="central" text-anchor="end" transform="translate(-10,0) rotate(0)" style="font-family: Montserrat; font-size: 12px; fill: rgb(51, 51, 51);">4.5</text></g><g transform="translate(0,0)" style="opacity: 1;"><line x1="0" x2="0" y1="0" y2="0" style="stroke: rgb(119, 119, 119); stroke-width: 1;"></line><text dominant-baseline="central" text-anchor="end" transform="translate(-10,0) rotate(0)" style="font-family: Montserrat; font-size: 12px; fill: rgb(51, 51, 51);">5</text></g><line x1="0" y1="0" x2="0" y2="213" style="stroke: transparent; stroke-width: 1;"></line><text transform="translate(-40, 106.5) rotate(-90)" text-anchor="middle" style="dominant-baseline: central; font-size: 12px; font-family: Montserrat; fill: rgb(51, 51, 51);">Rt</text></g><path fill="none" stroke-width="2" stroke="rgb(31, 119, 180)"></path><path fill="none" stroke-width="2" stroke="rgb(255, 127, 14)"></path><path fill="none" stroke-width="2" stroke="rgb(44, 160, 44)"></path><path fill="none" stroke-width="2" stroke="rgb(214, 39, 40)"></path><path fill="none" stroke-width="2" stroke="rgb(148, 103, 189)"></path><path fill="none" stroke-width="2" stroke="rgb(140, 86, 75)"></path><path fill="none" stroke-width="2" stroke="rgb(227, 119, 194)"></path><path d="M6.8,193L13.6,104L20.4,95L27.2,99L34,104L40.8,110L47.6,107L54.4,101L61.199999999999996,86L68,70L74.8,68L81.6,67L88.39999999999999,71L95.2,81L102,89L108.8,98L115.6,105L122.39999999999999,107L129.2,115L136,116L142.79999999999998,119L149.6,121L156.4,121L163.2,125L170,140L176.79999999999998,144L183.6,155L190.4,160L197.2,163L204,168L210.79999999999998,170L217.6,177L224.4,186L231.2,185L238,179L244.79999999999998,156L251.6,150L258.4,153L265.2,167L272,188L278.8,201L285.59999999999997,201L292.4,205L299.2,181L306,176L312.8,170L319.59999999999997,170L326.4,168L333.2,172L340,170L346.8,181L353.59999999999997,185L360.4,195L367.2,197L374,205L380.8,202L387.59999999999997,200L394.4,195L401.2,192L408,187L414.8,193L421.59999999999997,181L428.4,161L435.2,132L442,129L448.8,142L455.59999999999997,171L462.4,195L469.2,213L476,213L482.8,200L489.59999999999997,178L496.4,167L503.2,164L510,168L516.8,171L523.6,170L530.4,168L537.1999999999999,162L544,163L550.8,167L557.6,176L564.4,178L571.1999999999999,174L578,163L584.8,153L591.6,149L598.4,157L605.1999999999999,169L612,174L618.8,175L625.6,167L632.4,158L639.1999999999999,154L646,152" fill="none" stroke-width="2" stroke="rgb(127, 127, 127)"></path><g><g transform="translate(6.8, 193)" style="pointer-events: none;"><circle r="3" fill="#7f7f7f" stroke="transparent" stroke-width="0" style="pointer-events: none;"></circle></g><g transform="translate(13.6, 104)" style="pointer-events: none;"><circle r="3" fill="#7f7f7f" stroke="transparent" stroke-width="0" style="pointer-events: none;"></circle></g><g transform="translate(20.4, 95)" style="pointer-events: none;"><circle r="3" fill="#7f7f7f" stroke="transparent" stroke-width="0" style="pointer-events: none;"></circle></g><g transform="translate(27.2, 99)" style="pointer-events: none;"><circle r="3" fill="#7f7f7f" stroke="transparent" stroke-width="0" style="pointer-events: none;"></circle></g><g transform="translate(34, 104)" style="pointer-events: none;"><circle r="3" fill="#7f7f7f" stroke="transparent" stroke-width="0" style="pointer-events: none;"></circle></g><g transform="translate(40.8, 110)" style="pointer-events: none;"><circle r="3" fill="#7f7f7f" stroke="transparent" stroke-width="0" style="pointer-events: none;"></circle></g><g transform="translate(47.6, 107)" style="pointer-events: none;"><circle r="3" fill="#7f7f7f" stroke="transparent" stroke-width="0" style="pointer-events: none;"></circle></g><g transform="translate(54.4, 101)" style="pointer-events: none;"><circle r="3" fill="#7f7f7f" stroke="transparent" stroke-width="0" style="pointer-events: none;"></circle></g><g transform="translate(61.199999999999996, 86)" style="pointer-events: none;"><circle r="3" fill="#7f7f7f" stroke="transparent" stroke-width="0" style="pointer-events: none;"></circle></g><g transform="translate(68, 70)" style="pointer-events: none;"><circle r="3" fill="#7f7f7f" stroke="transparent" stroke-width="0" style="pointer-events: none;"></circle></g><g transform="translate(74.8, 68)" style="pointer-events: none;"><circle r="3" fill="#7f7f7f" stroke="transparent" stroke-width="0" style="pointer-events: none;"></circle></g><g transform="translate(81.6, 67)" style="pointer-events: none;"><circle r="3" fill="#7f7f7f" stroke="transparent" stroke-width="0" style="pointer-events: none;"></circle></g><g transform="translate(88.39999999999999, 71)" style="pointer-events: none;"><circle r="3" fill="#7f7f7f" stroke="transparent" stroke-width="0" style="pointer-events: none;"></circle></g><g transform="translate(95.2, 81)" style="pointer-events: none;"><circle r="3" fill="#7f7f7f" stroke="transparent" stroke-width="0" style="pointer-events: none;"></circle></g><g transform="translate(102, 89)" style="pointer-events: none;"><circle r="3" fill="#7f7f7f" stroke="transparent" stroke-width="0" style="pointer-events: none;"></circle></g><g transform="translate(108.8, 98)" style="pointer-events: none;"><circle r="3" fill="#7f7f7f" stroke="transparent" stroke-width="0" style="pointer-events: none;"></circle></g><g transform="translate(115.6, 105)" style="pointer-events: none;"><circle r="3" fill="#7f7f7f" stroke="transparent" stroke-width="0" style="pointer-events: none;"></circle></g><g transform="translate(122.39999999999999, 107)" style="pointer-events: none;"><circle r="3" fill="#7f7f7f" stroke="transparent" stroke-width="0" style="pointer-events: none;"></circle></g><g transform="translate(129.2, 115)" style="pointer-events: none;"><circle r="3" fill="#7f7f7f" stroke="transparent" stroke-width="0" style="pointer-events: none;"></circle></g><g transform="translate(136, 116)" style="pointer-events: none;"><circle r="3" fill="#7f7f7f" stroke="transparent" stroke-width="0" style="pointer-events: none;"></circle></g><g transform="translate(142.79999999999998, 119)" style="pointer-events: none;"><circle r="3" fill="#7f7f7f" stroke="transparent" stroke-width="0" style="pointer-events: none;"></circle></g><g transform="translate(149.6, 121)" style="pointer-events: none;"><circle r="3" fill="#7f7f7f" stroke="transparent" stroke-width="0" style="pointer-events: none;"></circle></g><g transform="translate(156.4, 121)" style="pointer-events: none;"><circle r="3" fill="#7f7f7f" stroke="transparent" stroke-width="0" style="pointer-events: none;"></circle></g><g transform="translate(163.2, 125)" style="pointer-events: none;"><circle r="3" fill="#7f7f7f" stroke="transparent" stroke-width="0" style="pointer-events: none;"></circle></g><g transform="translate(170, 140)" style="pointer-events: none;"><circle r="3" fill="#7f7f7f" stroke="transparent" stroke-width="0" style="pointer-events: none;"></circle></g><g transform="translate(176.79999999999998, 144)" style="pointer-events: none;"><circle r="3" fill="#7f7f7f" stroke="transparent" stroke-width="0" style="pointer-events: none;"></circle></g><g transform="translate(183.6, 155)" style="pointer-events: none;"><circle r="3" fill="#7f7f7f" stroke="transparent" stroke-width="0" style="pointer-events: none;"></circle></g><g transform="translate(190.4, 160)" style="pointer-events: none;"><circle r="3" fill="#7f7f7f" stroke="transparent" stroke-width="0" style="pointer-events: none;"></circle></g><g transform="translate(197.2, 163)" style="pointer-events: none;"><circle r="3" fill="#7f7f7f" stroke="transparent" stroke-width="0" style="pointer-events: none;"></circle></g><g transform="translate(204, 168)" style="pointer-events: none;"><circle r="3" fill="#7f7f7f" stroke="transparent" stroke-width="0" style="pointer-events: none;"></circle></g><g transform="translate(210.79999999999998, 170)" style="pointer-events: none;"><circle r="3" fill="#7f7f7f" stroke="transparent" stroke-width="0" style="pointer-events: none;"></circle></g><g transform="translate(217.6, 177)" style="pointer-events: none;"><circle r="3" fill="#7f7f7f" stroke="transparent" stroke-width="0" style="pointer-events: none;"></circle></g><g transform="translate(224.4, 186)" style="pointer-events: none;"><circle r="3" fill="#7f7f7f" stroke="transparent" stroke-width="0" style="pointer-events: none;"></circle></g><g transform="translate(231.2, 185)" style="pointer-events: none;"><circle r="3" fill="#7f7f7f" stroke="transparent" stroke-width="0" style="pointer-events: none;"></circle></g><g transform="translate(238, 179)" style="pointer-events: none;"><circle r="3" fill="#7f7f7f" stroke="transparent" stroke-width="0" style="pointer-events: none;"></circle></g><g transform="translate(244.79999999999998, 156)" style="pointer-events: none;"><circle r="3" fill="#7f7f7f" stroke="transparent" stroke-width="0" style="pointer-events: none;"></circle></g><g transform="translate(251.6, 150)" style="pointer-events: none;"><circle r="3" fill="#7f7f7f" stroke="transparent" stroke-width="0" style="pointer-events: none;"></circle></g><g transform="translate(258.4, 153)" style="pointer-events: none;"><circle r="3" fill="#7f7f7f" stroke="transparent" stroke-width="0" style="pointer-events: none;"></circle></g><g transform="translate(265.2, 167)" style="pointer-events: none;"><circle r="3" fill="#7f7f7f" stroke="transparent" stroke-width="0" style="pointer-events: none;"></circle></g><g transform="translate(272, 188)" style="pointer-events: none;"><circle r="3" fill="#7f7f7f" stroke="transparent" stroke-width="0" style="pointer-events: none;"></circle></g><g transform="translate(278.8, 201)" style="pointer-events: none;"><circle r="3" fill="#7f7f7f" stroke="transparent" stroke-width="0" style="pointer-events: none;"></circle></g><g transform="translate(285.59999999999997, 201)" style="pointer-events: none;"><circle r="3" fill="#7f7f7f" stroke="transparent" stroke-width="0" style="pointer-events: none;"></circle></g><g transform="translate(292.4, 205)" style="pointer-events: none;"><circle r="3" fill="#7f7f7f" stroke="transparent" stroke-width="0" style="pointer-events: none;"></circle></g><g transform="translate(299.2, 181)" style="pointer-events: none;"><circle r="3" fill="#7f7f7f" stroke="transparent" stroke-width="0" style="pointer-events: none;"></circle></g><g transform="translate(306, 176)" style="pointer-events: none;"><circle r="3" fill="#7f7f7f" stroke="transparent" stroke-width="0" style="pointer-events: none;"></circle></g><g transform="translate(312.8, 170)" style="pointer-events: none;"><circle r="3" fill="#7f7f7f" stroke="transparent" stroke-width="0" style="pointer-events: none;"></circle></g><g transform="translate(319.59999999999997, 170)" style="pointer-events: none;"><circle r="3" fill="#7f7f7f" stroke="transparent" stroke-width="0" style="pointer-events: none;"></circle></g><g transform="translate(326.4, 168)" style="pointer-events: none;"><circle r="3" fill="#7f7f7f" stroke="transparent" stroke-width="0" style="pointer-events: none;"></circle></g><g transform="translate(333.2, 172)" style="pointer-events: none;"><circle r="3" fill="#7f7f7f" stroke="transparent" stroke-width="0" style="pointer-events: none;"></circle></g><g transform="translate(340, 170)" style="pointer-events: none;"><circle r="3" fill="#7f7f7f" stroke="transparent" stroke-width="0" style="pointer-events: none;"></circle></g><g transform="translate(346.8, 181)" style="pointer-events: none;"><circle r="3" fill="#7f7f7f" stroke="transparent" stroke-width="0" style="pointer-events: none;"></circle></g><g transform="translate(353.59999999999997, 185)" style="pointer-events: none;"><circle r="3" fill="#7f7f7f" stroke="transparent" stroke-width="0" style="pointer-events: none;"></circle></g><g transform="translate(360.4, 195)" style="pointer-events: none;"><circle r="3" fill="#7f7f7f" stroke="transparent" stroke-width="0" style="pointer-events: none;"></circle></g><g transform="translate(367.2, 197)" style="pointer-events: none;"><circle r="3" fill="#7f7f7f" stroke="transparent" stroke-width="0" style="pointer-events: none;"></circle></g><g transform="translate(374, 205)" style="pointer-events: none;"><circle r="3" fill="#7f7f7f" stroke="transparent" stroke-width="0" style="pointer-events: none;"></circle></g><g transform="translate(380.8, 202)" style="pointer-events: none;"><circle r="3" fill="#7f7f7f" stroke="transparent" stroke-width="0" style="pointer-events: none;"></circle></g><g transform="translate(387.59999999999997, 200)" style="pointer-events: none;"><circle r="3" fill="#7f7f7f" stroke="transparent" stroke-width="0" style="pointer-events: none;"></circle></g><g transform="translate(394.4, 195)" style="pointer-events: none;"><circle r="3" fill="#7f7f7f" stroke="transparent" stroke-width="0" style="pointer-events: none;"></circle></g><g transform="translate(401.2, 192)" style="pointer-events: none;"><circle r="3" fill="#7f7f7f" stroke="transparent" stroke-width="0" style="pointer-events: none;"></circle></g><g transform="translate(408, 187)" style="pointer-events: none;"><circle r="3" fill="#7f7f7f" stroke="transparent" stroke-width="0" style="pointer-events: none;"></circle></g><g transform="translate(414.8, 193)" style="pointer-events: none;"><circle r="3" fill="#7f7f7f" stroke="transparent" stroke-width="0" style="pointer-events: none;"></circle></g><g transform="translate(421.59999999999997, 181)" style="pointer-events: none;"><circle r="3" fill="#7f7f7f" stroke="transparent" stroke-width="0" style="pointer-events: none;"></circle></g><g transform="translate(428.4, 161)" style="pointer-events: none;"><circle r="3" fill="#7f7f7f" stroke="transparent" stroke-width="0" style="pointer-events: none;"></circle></g><g transform="translate(435.2, 132)" style="pointer-events: none;"><circle r="3" fill="#7f7f7f" stroke="transparent" stroke-width="0" style="pointer-events: none;"></circle></g><g transform="translate(442, 129)" style="pointer-events: none;"><circle r="3" fill="#7f7f7f" stroke="transparent" stroke-width="0" style="pointer-events: none;"></circle></g><g transform="translate(448.8, 142)" style="pointer-events: none;"><circle r="3" fill="#7f7f7f" stroke="transparent" stroke-width="0" style="pointer-events: none;"></circle></g><g transform="translate(455.59999999999997, 171)" style="pointer-events: none;"><circle r="3" fill="#7f7f7f" stroke="transparent" stroke-width="0" style="pointer-events: none;"></circle></g><g transform="translate(462.4, 195)" style="pointer-events: none;"><circle r="3" fill="#7f7f7f" stroke="transparent" stroke-width="0" style="pointer-events: none;"></circle></g><g transform="translate(469.2, 213)" style="pointer-events: none;"><circle r="3" fill="#7f7f7f" stroke="transparent" stroke-width="0" style="pointer-events: none;"></circle></g><g transform="translate(476, 213)" style="pointer-events: none;"><circle r="3" fill="#7f7f7f" stroke="transparent" stroke-width="0" style="pointer-events: none;"></circle></g><g transform="translate(482.8, 200)" style="pointer-events: none;"><circle r="3" fill="#7f7f7f" stroke="transparent" stroke-width="0" style="pointer-events: none;"></circle></g><g transform="translate(489.59999999999997, 178)" style="pointer-events: none;"><circle r="3" fill="#7f7f7f" stroke="transparent" stroke-width="0" style="pointer-events: none;"></circle></g><g transform="translate(496.4, 167)" style="pointer-events: none;"><circle r="3" fill="#7f7f7f" stroke="transparent" stroke-width="0" style="pointer-events: none;"></circle></g><g transform="translate(503.2, 164)" style="pointer-events: none;"><circle r="3" fill="#7f7f7f" stroke="transparent" stroke-width="0" style="pointer-events: none;"></circle></g><g transform="translate(510, 168)" style="pointer-events: none;"><circle r="3" fill="#7f7f7f" stroke="transparent" stroke-width="0" style="pointer-events: none;"></circle></g><g transform="translate(516.8, 171)" style="pointer-events: none;"><circle r="3" fill="#7f7f7f" stroke="transparent" stroke-width="0" style="pointer-events: none;"></circle></g><g transform="translate(523.6, 170)" style="pointer-events: none;"><circle r="3" fill="#7f7f7f" stroke="transparent" stroke-width="0" style="pointer-events: none;"></circle></g><g transform="translate(530.4, 168)" style="pointer-events: none;"><circle r="3" fill="#7f7f7f" stroke="transparent" stroke-width="0" style="pointer-events: none;"></circle></g><g transform="translate(537.1999999999999, 162)" style="pointer-events: none;"><circle r="3" fill="#7f7f7f" stroke="transparent" stroke-width="0" style="pointer-events: none;"></circle></g><g transform="translate(544, 163)" style="pointer-events: none;"><circle r="3" fill="#7f7f7f" stroke="transparent" stroke-width="0" style="pointer-events: none;"></circle></g><g transform="translate(550.8, 167)" style="pointer-events: none;"><circle r="3" fill="#7f7f7f" stroke="transparent" stroke-width="0" style="pointer-events: none;"></circle></g><g transform="translate(557.6, 176)" style="pointer-events: none;"><circle r="3" fill="#7f7f7f" stroke="transparent" stroke-width="0" style="pointer-events: none;"></circle></g><g transform="translate(564.4, 178)" style="pointer-events: none;"><circle r="3" fill="#7f7f7f" stroke="transparent" stroke-width="0" style="pointer-events: none;"></circle></g><g transform="translate(571.1999999999999, 174)" style="pointer-events: none;"><circle r="3" fill="#7f7f7f" stroke="transparent" stroke-width="0" style="pointer-events: none;"></circle></g><g transform="translate(578, 163)" style="pointer-events: none;"><circle r="3" fill="#7f7f7f" stroke="transparent" stroke-width="0" style="pointer-events: none;"></circle></g><g transform="translate(584.8, 153)" style="pointer-events: none;"><circle r="3" fill="#7f7f7f" stroke="transparent" stroke-width="0" style="pointer-events: none;"></circle></g><g transform="translate(591.6, 149)" style="pointer-events: none;"><circle r="3" fill="#7f7f7f" stroke="transparent" stroke-width="0" style="pointer-events: none;"></circle></g><g transform="translate(598.4, 157)" style="pointer-events: none;"><circle r="3" fill="#7f7f7f" stroke="transparent" stroke-width="0" style="pointer-events: none;"></circle></g><g transform="translate(605.1999999999999, 169)" style="pointer-events: none;"><circle r="3" fill="#7f7f7f" stroke="transparent" stroke-width="0" style="pointer-events: none;"></circle></g><g transform="translate(612, 174)" style="pointer-events: none;"><circle r="3" fill="#7f7f7f" stroke="transparent" stroke-width="0" style="pointer-events: none;"></circle></g><g transform="translate(618.8, 175)" style="pointer-events: none;"><circle r="3" fill="#7f7f7f" stroke="transparent" stroke-width="0" style="pointer-events: none;"></circle></g><g transform="translate(625.6, 167)" style="pointer-events: none;"><circle r="3" fill="#7f7f7f" stroke="transparent" stroke-width="0" style="pointer-events: none;"></circle></g><g transform="translate(632.4, 158)" style="pointer-events: none;"><circle r="3" fill="#7f7f7f" stroke="transparent" stroke-width="0" style="pointer-events: none;"></circle></g><g transform="translate(639.1999999999999, 154)" style="pointer-events: none;"><circle r="3" fill="#7f7f7f" stroke="transparent" stroke-width="0" style="pointer-events: none;"></circle></g><g transform="translate(646, 152)" style="pointer-events: none;"><circle r="3" fill="#7f7f7f" stroke="transparent" stroke-width="0" style="pointer-events: none;"></circle></g></g><rect x="6.8" y="0" width="3.4" height="213" stroke="red" stroke-width="0" stroke-opacity="0.75" fill="red" fill-opacity="0"></rect><rect x="10.2" y="0" width="6.8" height="213" stroke="red" stroke-width="0" stroke-opacity="0.75" fill="red" fill-opacity="0"></rect><rect x="17" y="0" width="6.799999999999999" height="213" stroke="red" stroke-width="0" stroke-opacity="0.75" fill="red" fill-opacity="0"></rect><rect x="23.799999999999997" y="0" width="6.8000000000000025" height="213" stroke="red" stroke-width="0" stroke-opacity="0.75" fill="red" fill-opacity="0"></rect><rect x="30.6" y="0" width="6.799999999999997" height="213" stroke="red" stroke-width="0" stroke-opacity="0.75" fill="red" fill-opacity="0"></rect><rect x="37.4" y="0" width="6.800000000000001" height="213" stroke="red" stroke-width="0" stroke-opacity="0.75" fill="red" fill-opacity="0"></rect><rect x="44.2" y="0" width="6.799999999999997" height="213" stroke="red" stroke-width="0" stroke-opacity="0.75" fill="red" fill-opacity="0"></rect><rect x="51" y="0" width="6.799999999999997" height="213" stroke="red" stroke-width="0" stroke-opacity="0.75" fill="red" fill-opacity="0"></rect><rect x="57.8" y="0" width="6.800000000000001" height="213" stroke="red" stroke-width="0" stroke-opacity="0.75" fill="red" fill-opacity="0"></rect><rect x="64.6" y="0" width="6.800000000000004" height="213" stroke="red" stroke-width="0" stroke-opacity="0.75" fill="red" fill-opacity="0"></rect><rect x="71.4" y="0" width="6.79999999999999" height="213" stroke="red" stroke-width="0" stroke-opacity="0.75" fill="red" fill-opacity="0"></rect><rect x="78.19999999999999" y="0" width="6.800000000000004" height="213" stroke="red" stroke-width="0" stroke-opacity="0.75" fill="red" fill-opacity="0"></rect><rect x="85" y="0" width="6.799999999999997" height="213" stroke="red" stroke-width="0" stroke-opacity="0.75" fill="red" fill-opacity="0"></rect><rect x="91.8" y="0" width="6.800000000000004" height="213" stroke="red" stroke-width="0" stroke-opacity="0.75" fill="red" fill-opacity="0"></rect><rect x="98.6" y="0" width="6.800000000000004" height="213" stroke="red" stroke-width="0" stroke-opacity="0.75" fill="red" fill-opacity="0"></rect><rect x="105.4" y="0" width="6.79999999999999" height="213" stroke="red" stroke-width="0" stroke-opacity="0.75" fill="red" fill-opacity="0"></rect><rect x="112.19999999999999" y="0" width="6.800000000000004" height="213" stroke="red" stroke-width="0" stroke-opacity="0.75" fill="red" fill-opacity="0"></rect><rect x="119" y="0" width="6.79999999999999" height="213" stroke="red" stroke-width="0" stroke-opacity="0.75" fill="red" fill-opacity="0"></rect><rect x="125.79999999999998" y="0" width="6.800000000000011" height="213" stroke="red" stroke-width="0" stroke-opacity="0.75" fill="red" fill-opacity="0"></rect><rect x="132.6" y="0" width="6.799999999999997" height="213" stroke="red" stroke-width="0" stroke-opacity="0.75" fill="red" fill-opacity="0"></rect><rect x="139.39999999999998" y="0" width="6.800000000000011" height="213" stroke="red" stroke-width="0" stroke-opacity="0.75" fill="red" fill-opacity="0"></rect><rect x="146.2" y="0" width="6.800000000000011" height="213" stroke="red" stroke-width="0" stroke-opacity="0.75" fill="red" fill-opacity="0"></rect><rect x="153" y="0" width="6.799999999999997" height="213" stroke="red" stroke-width="0" stroke-opacity="0.75" fill="red" fill-opacity="0"></rect><rect x="159.8" y="0" width="6.799999999999983" height="213" stroke="red" stroke-width="0" stroke-opacity="0.75" fill="red" fill-opacity="0"></rect><rect x="166.6" y="0" width="6.799999999999997" height="213" stroke="red" stroke-width="0" stroke-opacity="0.75" fill="red" fill-opacity="0"></rect><rect x="173.39999999999998" y="0" width="6.800000000000011" height="213" stroke="red" stroke-width="0" stroke-opacity="0.75" fill="red" fill-opacity="0"></rect><rect x="180.2" y="0" width="6.800000000000011" height="213" stroke="red" stroke-width="0" stroke-opacity="0.75" fill="red" fill-opacity="0"></rect><rect x="187" y="0" width="6.799999999999997" height="213" stroke="red" stroke-width="0" stroke-opacity="0.75" fill="red" fill-opacity="0"></rect><rect x="193.8" y="0" width="6.799999999999983" height="213" stroke="red" stroke-width="0" stroke-opacity="0.75" fill="red" fill-opacity="0"></rect><rect x="200.6" y="0" width="6.799999999999997" height="213" stroke="red" stroke-width="0" stroke-opacity="0.75" fill="red" fill-opacity="0"></rect><rect x="207.39999999999998" y="0" width="6.800000000000011" height="213" stroke="red" stroke-width="0" stroke-opacity="0.75" fill="red" fill-opacity="0"></rect><rect x="214.2" y="0" width="6.800000000000011" height="213" stroke="red" stroke-width="0" stroke-opacity="0.75" fill="red" fill-opacity="0"></rect><rect x="221" y="0" width="6.799999999999997" height="213" stroke="red" stroke-width="0" stroke-opacity="0.75" fill="red" fill-opacity="0"></rect><rect x="227.8" y="0" width="6.799999999999983" height="213" stroke="red" stroke-width="0" stroke-opacity="0.75" fill="red" fill-opacity="0"></rect><rect x="234.6" y="0" width="6.799999999999997" height="213" stroke="red" stroke-width="0" stroke-opacity="0.75" fill="red" fill-opacity="0"></rect><rect x="241.39999999999998" y="0" width="6.800000000000011" height="213" stroke="red" stroke-width="0" stroke-opacity="0.75" fill="red" fill-opacity="0"></rect><rect x="248.2" y="0" width="6.799999999999997" height="213" stroke="red" stroke-width="0" stroke-opacity="0.75" fill="red" fill-opacity="0"></rect><rect x="255" y="0" width="6.799999999999983" height="213" stroke="red" stroke-width="0" stroke-opacity="0.75" fill="red" fill-opacity="0"></rect><rect x="261.79999999999995" y="0" width="6.80000000000004" height="213" stroke="red" stroke-width="0" stroke-opacity="0.75" fill="red" fill-opacity="0"></rect><rect x="268.6" y="0" width="6.799999999999983" height="213" stroke="red" stroke-width="0" stroke-opacity="0.75" fill="red" fill-opacity="0"></rect><rect x="275.4" y="0" width="6.800000000000011" height="213" stroke="red" stroke-width="0" stroke-opacity="0.75" fill="red" fill-opacity="0"></rect><rect x="282.2" y="0" width="6.799999999999983" height="213" stroke="red" stroke-width="0" stroke-opacity="0.75" fill="red" fill-opacity="0"></rect><rect x="289" y="0" width="6.799999999999983" height="213" stroke="red" stroke-width="0" stroke-opacity="0.75" fill="red" fill-opacity="0"></rect><rect x="295.79999999999995" y="0" width="6.80000000000004" height="213" stroke="red" stroke-width="0" stroke-opacity="0.75" fill="red" fill-opacity="0"></rect><rect x="302.6" y="0" width="6.799999999999983" height="213" stroke="red" stroke-width="0" stroke-opacity="0.75" fill="red" fill-opacity="0"></rect><rect x="309.4" y="0" width="6.800000000000011" height="213" stroke="red" stroke-width="0" stroke-opacity="0.75" fill="red" fill-opacity="0"></rect><rect x="316.2" y="0" width="6.799999999999983" height="213" stroke="red" stroke-width="0" stroke-opacity="0.75" fill="red" fill-opacity="0"></rect><rect x="323" y="0" width="6.799999999999983" height="213" stroke="red" stroke-width="0" stroke-opacity="0.75" fill="red" fill-opacity="0"></rect><rect x="329.79999999999995" y="0" width="6.80000000000004" height="213" stroke="red" stroke-width="0" stroke-opacity="0.75" fill="red" fill-opacity="0"></rect><rect x="336.6" y="0" width="6.799999999999983" height="213" stroke="red" stroke-width="0" stroke-opacity="0.75" fill="red" fill-opacity="0"></rect><rect x="343.4" y="0" width="6.800000000000011" height="213" stroke="red" stroke-width="0" stroke-opacity="0.75" fill="red" fill-opacity="0"></rect><rect x="350.2" y="0" width="6.799999999999983" height="213" stroke="red" stroke-width="0" stroke-opacity="0.75" fill="red" fill-opacity="0"></rect><rect x="357" y="0" width="6.799999999999983" height="213" stroke="red" stroke-width="0" stroke-opacity="0.75" fill="red" fill-opacity="0"></rect><rect x="363.79999999999995" y="0" width="6.80000000000004" height="213" stroke="red" stroke-width="0" stroke-opacity="0.75" fill="red" fill-opacity="0"></rect><rect x="370.6" y="0" width="6.799999999999983" height="213" stroke="red" stroke-width="0" stroke-opacity="0.75" fill="red" fill-opacity="0"></rect><rect x="377.4" y="0" width="6.800000000000011" height="213" stroke="red" stroke-width="0" stroke-opacity="0.75" fill="red" fill-opacity="0"></rect><rect x="384.2" y="0" width="6.799999999999983" height="213" stroke="red" stroke-width="0" stroke-opacity="0.75" fill="red" fill-opacity="0"></rect><rect x="391" y="0" width="6.799999999999983" height="213" stroke="red" stroke-width="0" stroke-opacity="0.75" fill="red" fill-opacity="0"></rect><rect x="397.79999999999995" y="0" width="6.80000000000004" height="213" stroke="red" stroke-width="0" stroke-opacity="0.75" fill="red" fill-opacity="0"></rect><rect x="404.6" y="0" width="6.799999999999983" height="213" stroke="red" stroke-width="0" stroke-opacity="0.75" fill="red" fill-opacity="0"></rect><rect x="411.4" y="0" width="6.800000000000011" height="213" stroke="red" stroke-width="0" stroke-opacity="0.75" fill="red" fill-opacity="0"></rect><rect x="418.2" y="0" width="6.799999999999983" height="213" stroke="red" stroke-width="0" stroke-opacity="0.75" fill="red" fill-opacity="0"></rect><rect x="425" y="0" width="6.799999999999983" height="213" stroke="red" stroke-width="0" stroke-opacity="0.75" fill="red" fill-opacity="0"></rect><rect x="431.79999999999995" y="0" width="6.80000000000004" height="213" stroke="red" stroke-width="0" stroke-opacity="0.75" fill="red" fill-opacity="0"></rect><rect x="438.6" y="0" width="6.799999999999983" height="213" stroke="red" stroke-width="0" stroke-opacity="0.75" fill="red" fill-opacity="0"></rect><rect x="445.4" y="0" width="6.800000000000011" height="213" stroke="red" stroke-width="0" stroke-opacity="0.75" fill="red" fill-opacity="0"></rect><rect x="452.2" y="0" width="6.799999999999983" height="213" stroke="red" stroke-width="0" stroke-opacity="0.75" fill="red" fill-opacity="0"></rect><rect x="459" y="0" width="6.799999999999983" height="213" stroke="red" stroke-width="0" stroke-opacity="0.75" fill="red" fill-opacity="0"></rect><rect x="465.79999999999995" y="0" width="6.80000000000004" height="213" stroke="red" stroke-width="0" stroke-opacity="0.75" fill="red" fill-opacity="0"></rect><rect x="472.6" y="0" width="6.799999999999983" height="213" stroke="red" stroke-width="0" stroke-opacity="0.75" fill="red" fill-opacity="0"></rect><rect x="479.4" y="0" width="6.800000000000011" height="213" stroke="red" stroke-width="0" stroke-opacity="0.75" fill="red" fill-opacity="0"></rect><rect x="486.2" y="0" width="6.799999999999983" height="213" stroke="red" stroke-width="0" stroke-opacity="0.75" fill="red" fill-opacity="0"></rect><rect x="493" y="0" width="6.799999999999983" height="213" stroke="red" stroke-width="0" stroke-opacity="0.75" fill="red" fill-opacity="0"></rect><rect x="499.79999999999995" y="0" width="6.80000000000004" height="213" stroke="red" stroke-width="0" stroke-opacity="0.75" fill="red" fill-opacity="0"></rect><rect x="506.6" y="0" width="6.7999999999999545" height="213" stroke="red" stroke-width="0" stroke-opacity="0.75" fill="red" fill-opacity="0"></rect><rect x="513.4" y="0" width="6.800000000000011" height="213" stroke="red" stroke-width="0" stroke-opacity="0.75" fill="red" fill-opacity="0"></rect><rect x="520.2" y="0" width="6.7999999999999545" height="213" stroke="red" stroke-width="0" stroke-opacity="0.75" fill="red" fill-opacity="0"></rect><rect x="527" y="0" width="6.7999999999999545" height="213" stroke="red" stroke-width="0" stroke-opacity="0.75" fill="red" fill-opacity="0"></rect><rect x="533.8" y="0" width="6.800000000000011" height="213" stroke="red" stroke-width="0" stroke-opacity="0.75" fill="red" fill-opacity="0"></rect><rect x="540.5999999999999" y="0" width="6.800000000000068" height="213" stroke="red" stroke-width="0" stroke-opacity="0.75" fill="red" fill-opacity="0"></rect><rect x="547.4" y="0" width="6.800000000000011" height="213" stroke="red" stroke-width="0" stroke-opacity="0.75" fill="red" fill-opacity="0"></rect><rect x="554.2" y="0" width="6.7999999999999545" height="213" stroke="red" stroke-width="0" stroke-opacity="0.75" fill="red" fill-opacity="0"></rect><rect x="561" y="0" width="6.7999999999999545" height="213" stroke="red" stroke-width="0" stroke-opacity="0.75" fill="red" fill-opacity="0"></rect><rect x="567.8" y="0" width="6.800000000000011" height="213" stroke="red" stroke-width="0" stroke-opacity="0.75" fill="red" fill-opacity="0"></rect><rect x="574.5999999999999" y="0" width="6.800000000000068" height="213" stroke="red" stroke-width="0" stroke-opacity="0.75" fill="red" fill-opacity="0"></rect><rect x="581.4" y="0" width="6.800000000000011" height="213" stroke="red" stroke-width="0" stroke-opacity="0.75" fill="red" fill-opacity="0"></rect><rect x="588.2" y="0" width="6.7999999999999545" height="213" stroke="red" stroke-width="0" stroke-opacity="0.75" fill="red" fill-opacity="0"></rect><rect x="595" y="0" width="6.7999999999999545" height="213" stroke="red" stroke-width="0" stroke-opacity="0.75" fill="red" fill-opacity="0"></rect><rect x="601.8" y="0" width="6.800000000000011" height="213" stroke="red" stroke-width="0" stroke-opacity="0.75" fill="red" fill-opacity="0"></rect><rect x="608.5999999999999" y="0" width="6.800000000000068" height="213" stroke="red" stroke-width="0" stroke-opacity="0.75" fill="red" fill-opacity="0"></rect><rect x="615.4" y="0" width="6.800000000000011" height="213" stroke="red" stroke-width="0" stroke-opacity="0.75" fill="red" fill-opacity="0"></rect><rect x="622.2" y="0" width="6.7999999999999545" height="213" stroke="red" stroke-width="0" stroke-opacity="0.75" fill="red" fill-opacity="0"></rect><rect x="629" y="0" width="6.7999999999999545" height="213" stroke="red" stroke-width="0" stroke-opacity="0.75" fill="red" fill-opacity="0"></rect><rect x="635.8" y="0" width="6.800000000000011" height="213" stroke="red" stroke-width="0" stroke-opacity="0.75" fill="red" fill-opacity="0"></rect><rect x="642.5999999999999" y="0" width="3.400000000000091" height="213" stroke="red" stroke-width="0" stroke-opacity="0.75" fill="red" fill-opacity="0"></rect><g transform="translate(676,6.5)"><g transform="translate(0,0)" style="opacity: 0.75;"><rect width="50" height="25" fill="transparent" style="cursor: pointer;"></rect><circle r="5" cx="45" cy="12.5" fill="#7f7f7f" stroke-width="0" stroke="transparent" style="pointer-events: none;"></circle><text text-anchor="end" x="32" y="12.5" style="fill: black; font-family: Montserrat; font-size: 12px; dominant-baseline: central; pointer-events: none; user-select: none;">Portugal</text></g><g transform="translate(0,25)" style="opacity: 0.75;"><rect width="50" height="25" fill="transparent" style="cursor: pointer;"></rect><circle r="5" cx="45" cy="12.5" fill="#e377c2" stroke-width="0" stroke="transparent" style="pointer-events: none;"></circle><text text-anchor="end" x="32" y="12.5" style="fill: black; font-family: Montserrat; font-size: 12px; dominant-baseline: central; pointer-events: none; user-select: none;">Norte</text></g><g transform="translate(0,50)" style="opacity: 0.75;"><rect width="50" height="25" fill="transparent" style="cursor: pointer;"></rect><circle r="5" cx="45" cy="12.5" fill="#8c564b" stroke-width="0" stroke="transparent" style="pointer-events: none;"></circle><text text-anchor="end" x="32" y="12.5" style="fill: black; font-family: Montserrat; font-size: 12px; dominant-baseline: central; pointer-events: none; user-select: none;">Madeira</text></g><g transform="translate(0,75)" style="opacity: 0.75;"><rect width="50" height="25" fill="transparent" style="cursor: pointer;"></rect><circle r="5" cx="45" cy="12.5" fill="#9467bd" stroke-width="0" stroke="transparent" style="pointer-events: none;"></circle><text text-anchor="end" x="32" y="12.5" style="fill: black; font-family: Montserrat; font-size: 12px; dominant-baseline: central; pointer-events: none; user-select: none;">Lvt</text></g><g transform="translate(0,100)" style="opacity: 0.75;"><rect width="50" height="25" fill="transparent" style="cursor: pointer;"></rect><circle r="5" cx="45" cy="12.5" fill="#d62728" stroke-width="0" stroke="transparent" style="pointer-events: none;"></circle><text text-anchor="end" x="32" y="12.5" style="fill: black; font-family: Montserrat; font-size: 12px; dominant-baseline: central; pointer-events: none; user-select: none;">Centro</text></g><g transform="translate(0,125)" style="opacity: 0.75;"><rect width="50" height="25" fill="transparent" style="cursor: pointer;"></rect><circle r="5" cx="45" cy="12.5" fill="#2ca02c" stroke-width="0" stroke="transparent" style="pointer-events: none;"></circle><text text-anchor="end" x="32" y="12.5" style="fill: black; font-family: Montserrat; font-size: 12px; dominant-baseline: central; pointer-events: none; user-select: none;">Algarve</text></g><g transform="translate(0,150)" style="opacity: 0.75;"><rect width="50" height="25" fill="transparent" style="cursor: pointer;"></rect><circle r="5" cx="45" cy="12.5" fill="#ff7f0e" stroke-width="0" stroke="transparent" style="pointer-events: none;"></circle><text text-anchor="end" x="32" y="12.5" style="fill: black; font-family: Montserrat; font-size: 12px; dominant-baseline: central; pointer-events: none; user-select: none;">Alentejo</text></g><g transform="translate(0,175)" style="opacity: 0.75;"><rect width="50" height="25" fill="transparent" style="cursor: pointer;"></rect><circle r="5" cx="45" cy="12.5" fill="#1f77b4" stroke-width="0" stroke="transparent" style="pointer-events: none;"></circle><text text-anchor="end" x="32" y="12.5" style="fill: black; font-family: Montserrat; font-size: 12px; dominant-baseline: central; pointer-events: none; user-select: none;">Acores</text></g></g></g></svg>
